<svg width="1440" height="340" viewBox="0 0 1440 340" fill="none" xmlns="http://www.w3.org/2000/svg">
<path d="M265.839 475.289L266.066 475.315H266.111L266.649 475.378C350.682 485.165 432.122 494.65 497.918 508.555C530.91 515.527 559.816 523.58 583.059 533.273C606.367 542.993 623.579 554.199 633.63 567.244L633.723 567.364L633.824 567.477C643.299 578.014 646.544 590.63 645.519 603.469C644.759 606.732 641.191 609.293 636.799 609.293H635.634C632.852 609.293 629.363 606.226 629.255 600.862C630.442 592.062 629.13 584.024 622.594 576.167C613.861 564.975 598.379 555.143 576.692 546.408C554.883 537.623 526.352 529.774 491.036 522.824C429.152 509.796 353.074 500.862 279.212 492.189C274.299 491.612 269.396 491.036 264.507 490.46L264.5 490.459L264.492 490.459C183.699 481.242 100.768 470.851 35.1544 458.2C-3.90985 450.156 -34.178 441 -57.0397 430.778C-79.7942 420.604 -94.9782 409.477 -104.257 397.565C-111.883 384.402 -114.822 371.793 -110.671 358.289L-110.617 358.115L-110.58 357.938C-106.322 337.733 -86.2805 315.42 -47.2836 290.669C-8.5249 266.07 48.0195 239.638 123.513 210.82L123.521 210.816L123.529 210.813C245.69 163.552 396.72 117.431 506.358 85.1217L506.381 85.115L506.404 85.108L611.413 52.7975L611.479 52.7771L611.545 52.7545C626.717 47.505 635.922 43.0768 641.556 39.7261C646.831 36.5893 648.951 34.4059 649.788 33.5438C649.863 33.4661 649.928 33.3991 649.984 33.3432L652.014 31.3138L650.741 28.7414C649.613 26.4596 646.119 22.1985 635.517 16.9697C624.858 11.7123 606.619 5.28205 575.32 -1.09347C526.507 -12.7151 460.459 -19.6631 384.29 -24.2722C207.421 -35.836 7.50517 -27.7474 -164.734 -2.30863L-164.766 -2.3039L-164.798 -2.29865C-167.46 -1.86123 -169.587 -2.35148 -171.063 -3.30884C-172.43 -4.19514 -173.538 -5.67001 -173.995 -7.92931C-173.93 -10.0025 -173.268 -12.1903 -172.135 -13.7934C-171.011 -15.384 -169.547 -16.2801 -167.618 -16.2801H-167.315L-167.015 -16.3257C6.96848 -42.8451 209.776 -52.0475 387.198 -39.3833L387.221 -39.3817L387.244 -39.3803C464.45 -34.7543 531.157 -26.6955 580.527 -16.3699C616.692 -8.33157 637.529 -0.0903664 649.517 7.34578C661.299 14.654 664.247 20.9881 665.151 25.4431C665.665 28.5334 665.877 32.4331 664.556 36.638C663.253 40.7878 660.357 45.5551 654.133 50.2566C645.267 55.7727 632.953 61.3913 615.929 67.0687L511.01 99.3517C511.003 99.354 510.995 99.3562 510.987 99.3585C401.367 131.662 251.194 176.7 129.856 224.093C42.025 258.183 -12.8108 286.002 -46.4827 308.447C-79.9211 330.738 -93.1716 348.174 -96.4612 361.826C-99.0328 370.951 -97.7726 380.337 -91.1901 388.327C-83.5463 399.655 -68.5264 409.497 -47.2498 418.327C-25.7258 427.259 2.81119 435.397 38.1176 442.916C101.424 456.485 181.224 465.612 260.061 474.628C261.988 474.849 263.914 475.069 265.839 475.289Z" fill="#039854" stroke="#1F4D2C" stroke-width="8"/>
<mask id="path-2-inside-1_50_10231" fill="white">
<path d="M2767.63 304.447C2764.16 298.673 2756.08 297.534 2751.47 300.978C2661.45 358.686 2591.06 397.909 2528.74 425.611C2454.88 457.921 2390.26 475.241 2329.08 477.546C2300.24 478.71 2278.31 475.241 2263.3 469.468C2246 462.555 2237.9 451.008 2236.76 435.993C2234.01 404.971 2259.43 361.684 2303.26 319.834C2305.89 318.818 2307.87 316.885 2308.89 314.556C2319 305.264 2330 296.072 2341.77 287.127C2400.62 242.13 2483.72 208.655 2534.49 208.655C2571.44 208.655 2595.67 217.897 2601.44 236.357C2606.05 252.512 2595.67 272.136 2582.98 280.214C2577.21 283.683 2576.07 290.596 2580.68 296.369C2584.12 300.978 2591.06 303.282 2595.67 299.838C2615.29 285.987 2631.45 257.145 2622.21 229.444C2610.66 191.36 2562.19 185.587 2534.49 185.587C2479.09 185.587 2391.4 220.202 2327.92 268.667C2315.26 278.182 2303.39 287.944 2292.49 297.905C2153.83 307.569 2070 295.031 2023.3 282.518C2002.53 277.909 1986.38 270.972 1974.83 266.363C1963.29 253.677 1950.6 244.434 1942.52 239.826C1933.28 236.357 1928.67 240.99 1926.37 242.13C1924.06 245.599 1921.76 251.372 1925.23 257.121C1925.23 259.425 1927.53 261.729 1929.84 265.198C1907.91 270.972 1885.98 281.354 1866.38 294.04C1864.12 295.328 1861.82 296.716 1859.47 298.203C1857.66 298.252 1855.8 298.772 1854.06 299.813C1851.76 300.978 1848.29 304.422 1839.07 312.499C1810.23 335.593 1722.52 405.987 1683.27 405.987C1667.11 405.987 1656.71 401.378 1650.96 392.136C1630.2 363.294 1650.96 292.875 1671.72 238.636L1689.04 195.944C1727.13 154.391 1765.21 107.09 1798.69 60.9287C1817.15 36.6958 1875.99 -47.5493 1874.85 -74.0865C1873.71 -80.9996 1871.38 -84.4685 1869.08 -86.7728C1864.47 -89.0772 1857.53 -92.5461 1847.15 -90.2418C1818.31 -82.1641 1779.06 -24.4562 1758.3 7.85425C1727.13 56.32 1697.12 117.497 1669.44 183.282C1649.82 204.046 1630.2 223.67 1611.74 240.99L1592.11 259.45C1575.96 252.537 1559.8 249.068 1537.87 250.208C1479.67 250.976 1431.38 275.481 1404.32 302.687C1315.59 359.454 1245.94 398.206 1184.24 425.636C1110.38 457.946 1045.76 475.266 984.58 477.57C955.739 478.735 933.81 475.266 918.795 469.493C901.475 462.58 893.397 451.033 892.258 436.018C889.532 404.996 914.929 361.708 958.762 319.834C961.363 318.818 963.37 316.885 964.386 314.556C974.496 305.264 985.497 296.072 997.267 287.127C1056.11 242.13 1139.22 208.655 1189.99 208.655C1226.91 208.655 1251.17 217.897 1256.92 236.357C1261.52 252.512 1251.14 272.136 1238.46 280.214C1232.68 283.683 1231.54 290.596 1236.15 296.369C1239.62 300.978 1246.53 303.282 1251.14 299.838C1270.77 285.987 1286.92 257.145 1277.68 229.444C1266.13 191.36 1217.67 185.587 1189.96 185.587C1134.56 185.587 1046.87 220.202 983.391 268.667C970.705 278.182 958.861 287.944 947.958 297.905C809.301 307.569 725.477 295.031 678.771 282.518C658.007 277.909 641.851 270.972 630.305 266.363C618.758 253.677 606.072 244.434 597.994 239.826C588.752 236.357 584.143 240.99 581.839 242.13C579.535 245.599 577.23 251.372 580.674 257.121C580.674 259.425 582.979 261.729 585.283 265.198C563.355 270.972 541.426 281.354 521.802 294.04C497.569 307.891 466.399 333.288 450.243 369.043C443.33 382.894 438.697 404.822 449.079 422.142C455.992 431.384 469.843 444.07 503.318 444.07C529.855 444.07 558.721 434.828 585.258 418.673C611.796 402.518 632.584 379.425 644.106 355.192C652.184 336.732 653.348 317.108 647.575 297.484L668.339 304.397C733.406 321.197 820.426 327.49 923.329 322.411C913.121 333.635 904.225 344.983 896.792 356.332C877.168 385.173 866.786 414.04 869.09 438.272C871.395 461.366 885.245 479.825 909.478 490.207C925.634 497.12 947.562 500.589 974.099 500.589H985.646C1049.13 498.285 1117.22 480.965 1193.38 446.35C1247.6 422.687 1307.71 389.782 1380.88 343.992C1380.88 344.265 1380.83 344.513 1380.8 344.785C1380.8 354.027 1383.11 363.245 1390.05 370.183C1398.12 378.26 1411.98 382.869 1428.13 381.729C1469.68 379.425 1522.76 350.558 1594.32 288.242C1595.48 288.242 1595.48 289.406 1596.62 289.406C1601.23 292.875 1609.31 292.875 1612.78 287.102C1616.25 282.493 1616.25 276.72 1611.61 272.111L1626.6 258.26L1646.23 239.801C1616.22 321.742 1610.45 375.981 1631.24 404.822C1641.62 420.977 1660.08 429.055 1683.17 429.055C1710.95 429.055 1750.1 406.854 1791.25 377.319C1786.62 390.699 1785.06 407.969 1793.56 422.142C1800.49 431.384 1814.32 444.07 1847.8 444.07C1874.33 444.07 1903.2 434.828 1929.74 418.673C1956.3 402.518 1977.06 379.425 1988.58 355.192C1996.66 336.732 1997.83 317.108 1992.05 297.484L2012.82 304.397C2077.88 321.197 2164.9 327.49 2267.81 322.411C2257.6 333.635 2248.7 344.983 2241.27 356.332C2221.65 385.173 2211.26 414.04 2213.57 438.272C2215.87 461.366 2229.72 479.825 2253.96 490.207C2270.11 497.12 2292.04 500.589 2318.58 500.589H2330.12C2393.58 498.285 2461.69 480.965 2537.84 446.35C2601.32 418.648 2672.85 378.26 2764.04 319.413C2768.64 317.108 2770.97 309.031 2767.5 304.422L2767.63 304.447ZM1783.65 11.3232C1817.1 -40.6115 1839.05 -60.2356 1849.43 -66.0089C1843.66 -49.8537 1824.03 -12.9345 1779.04 48.2423C1761.72 73.6398 1742.09 99.0124 1721.33 123.245C1742.09 81.6926 1762.88 43.6089 1783.65 11.2984V11.3232ZM623.392 344.835C614.15 365.599 595.69 385.223 572.622 399.074C550.693 412.925 525.296 421.002 503.367 421.002C486.047 421.002 473.361 416.393 468.752 409.456C462.979 401.378 466.448 387.527 471.057 378.285C496.454 322.881 569.153 290.571 610.705 282.493C611.87 282.493 613.01 283.658 614.174 284.798C618.783 289.406 622.252 296.344 624.556 302.117C630.33 317.108 629.165 330.959 623.392 344.81V344.835ZM1427.04 358.686C1417.8 358.686 1409.72 357.521 1406.28 354.077C1403.97 351.773 1403.97 349.468 1403.97 344.835C1403.97 340.201 1408.83 330.488 1420.4 318.991C1421.17 318.471 1421.84 317.802 1422.41 317.034C1427.41 312.276 1433.53 307.247 1440.89 302.142C1457.05 291.76 1490.52 273.301 1538.99 272.136H1542.46C1554 272.136 1563.22 274.44 1572.46 276.745C1508.98 330.984 1461.68 357.521 1427.04 358.686ZM1967.92 344.835C1958.68 365.599 1940.22 385.223 1917.15 399.074C1895.22 412.925 1869.82 421.002 1847.89 421.002C1830.6 421.002 1817.89 416.393 1813.28 409.456C1807.51 401.378 1810.98 387.527 1815.58 378.285C1840.98 322.881 1913.68 290.571 1955.23 282.493C1956.37 282.493 1957.54 283.658 1958.68 284.798C1963.29 289.406 1966.75 296.344 1969.06 302.117C1974.83 317.108 1973.67 330.959 1967.92 344.81V344.835Z"/>
</mask>
<path d="M2767.63 304.447C2764.16 298.673 2756.08 297.534 2751.47 300.978C2661.45 358.686 2591.06 397.909 2528.74 425.611C2454.88 457.921 2390.26 475.241 2329.08 477.546C2300.24 478.71 2278.31 475.241 2263.3 469.468C2246 462.555 2237.9 451.008 2236.76 435.993C2234.01 404.971 2259.43 361.684 2303.26 319.834C2305.89 318.818 2307.87 316.885 2308.89 314.556C2319 305.264 2330 296.072 2341.77 287.127C2400.62 242.13 2483.72 208.655 2534.49 208.655C2571.44 208.655 2595.67 217.897 2601.44 236.357C2606.05 252.512 2595.67 272.136 2582.98 280.214C2577.21 283.683 2576.07 290.596 2580.68 296.369C2584.12 300.978 2591.06 303.282 2595.67 299.838C2615.29 285.987 2631.45 257.145 2622.21 229.444C2610.66 191.36 2562.19 185.587 2534.49 185.587C2479.09 185.587 2391.4 220.202 2327.92 268.667C2315.26 278.182 2303.39 287.944 2292.49 297.905C2153.83 307.569 2070 295.031 2023.3 282.518C2002.53 277.909 1986.38 270.972 1974.83 266.363C1963.29 253.677 1950.6 244.434 1942.52 239.826C1933.28 236.357 1928.67 240.99 1926.37 242.13C1924.06 245.599 1921.76 251.372 1925.23 257.121C1925.23 259.425 1927.53 261.729 1929.84 265.198C1907.91 270.972 1885.98 281.354 1866.38 294.04C1864.12 295.328 1861.82 296.716 1859.47 298.203C1857.66 298.252 1855.8 298.772 1854.06 299.813C1851.76 300.978 1848.29 304.422 1839.07 312.499C1810.23 335.593 1722.52 405.987 1683.27 405.987C1667.11 405.987 1656.71 401.378 1650.96 392.136C1630.2 363.294 1650.96 292.875 1671.72 238.636L1689.04 195.944C1727.13 154.391 1765.21 107.09 1798.69 60.9287C1817.15 36.6958 1875.99 -47.5493 1874.85 -74.0865C1873.71 -80.9996 1871.38 -84.4685 1869.08 -86.7728C1864.47 -89.0772 1857.53 -92.5461 1847.15 -90.2418C1818.31 -82.1641 1779.06 -24.4562 1758.3 7.85425C1727.13 56.32 1697.12 117.497 1669.44 183.282C1649.82 204.046 1630.2 223.67 1611.74 240.99L1592.11 259.45C1575.96 252.537 1559.8 249.068 1537.87 250.208C1479.67 250.976 1431.38 275.481 1404.32 302.687C1315.59 359.454 1245.94 398.206 1184.24 425.636C1110.38 457.946 1045.76 475.266 984.58 477.57C955.739 478.735 933.81 475.266 918.795 469.493C901.475 462.58 893.397 451.033 892.258 436.018C889.532 404.996 914.929 361.708 958.762 319.834C961.363 318.818 963.37 316.885 964.386 314.556C974.496 305.264 985.497 296.072 997.267 287.127C1056.11 242.13 1139.22 208.655 1189.99 208.655C1226.91 208.655 1251.17 217.897 1256.92 236.357C1261.52 252.512 1251.14 272.136 1238.46 280.214C1232.68 283.683 1231.54 290.596 1236.15 296.369C1239.62 300.978 1246.53 303.282 1251.14 299.838C1270.77 285.987 1286.92 257.145 1277.68 229.444C1266.13 191.36 1217.67 185.587 1189.96 185.587C1134.56 185.587 1046.87 220.202 983.391 268.667C970.705 278.182 958.861 287.944 947.958 297.905C809.301 307.569 725.477 295.031 678.771 282.518C658.007 277.909 641.851 270.972 630.305 266.363C618.758 253.677 606.072 244.434 597.994 239.826C588.752 236.357 584.143 240.99 581.839 242.13C579.535 245.599 577.23 251.372 580.674 257.121C580.674 259.425 582.979 261.729 585.283 265.198C563.355 270.972 541.426 281.354 521.802 294.04C497.569 307.891 466.399 333.288 450.243 369.043C443.33 382.894 438.697 404.822 449.079 422.142C455.992 431.384 469.843 444.07 503.318 444.07C529.855 444.07 558.721 434.828 585.258 418.673C611.796 402.518 632.584 379.425 644.106 355.192C652.184 336.732 653.348 317.108 647.575 297.484L668.339 304.397C733.406 321.197 820.426 327.49 923.329 322.411C913.121 333.635 904.225 344.983 896.792 356.332C877.168 385.173 866.786 414.04 869.09 438.272C871.395 461.366 885.245 479.825 909.478 490.207C925.634 497.12 947.562 500.589 974.099 500.589H985.646C1049.13 498.285 1117.22 480.965 1193.38 446.35C1247.6 422.687 1307.71 389.782 1380.88 343.992C1380.88 344.265 1380.83 344.513 1380.8 344.785C1380.8 354.027 1383.11 363.245 1390.05 370.183C1398.12 378.26 1411.98 382.869 1428.13 381.729C1469.68 379.425 1522.76 350.558 1594.32 288.242C1595.48 288.242 1595.48 289.406 1596.62 289.406C1601.23 292.875 1609.31 292.875 1612.78 287.102C1616.25 282.493 1616.25 276.72 1611.61 272.111L1626.6 258.26L1646.23 239.801C1616.22 321.742 1610.45 375.981 1631.24 404.822C1641.62 420.977 1660.08 429.055 1683.17 429.055C1710.95 429.055 1750.1 406.854 1791.25 377.319C1786.62 390.699 1785.06 407.969 1793.56 422.142C1800.49 431.384 1814.32 444.07 1847.8 444.07C1874.33 444.07 1903.2 434.828 1929.74 418.673C1956.3 402.518 1977.06 379.425 1988.58 355.192C1996.66 336.732 1997.83 317.108 1992.05 297.484L2012.82 304.397C2077.88 321.197 2164.9 327.49 2267.81 322.411C2257.6 333.635 2248.7 344.983 2241.27 356.332C2221.65 385.173 2211.26 414.04 2213.57 438.272C2215.87 461.366 2229.72 479.825 2253.96 490.207C2270.11 497.12 2292.04 500.589 2318.58 500.589H2330.12C2393.58 498.285 2461.69 480.965 2537.84 446.35C2601.32 418.648 2672.85 378.26 2764.04 319.413C2768.64 317.108 2770.97 309.031 2767.5 304.422L2767.63 304.447ZM1783.65 11.3232C1817.1 -40.6115 1839.05 -60.2356 1849.43 -66.0089C1843.66 -49.8537 1824.03 -12.9345 1779.04 48.2423C1761.72 73.6398 1742.09 99.0124 1721.33 123.245C1742.09 81.6926 1762.88 43.6089 1783.65 11.2984V11.3232ZM623.392 344.835C614.15 365.599 595.69 385.223 572.622 399.074C550.693 412.925 525.296 421.002 503.367 421.002C486.047 421.002 473.361 416.393 468.752 409.456C462.979 401.378 466.448 387.527 471.057 378.285C496.454 322.881 569.153 290.571 610.705 282.493C611.87 282.493 613.01 283.658 614.174 284.798C618.783 289.406 622.252 296.344 624.556 302.117C630.33 317.108 629.165 330.959 623.392 344.81V344.835ZM1427.04 358.686C1417.8 358.686 1409.72 357.521 1406.28 354.077C1403.97 351.773 1403.97 349.468 1403.97 344.835C1403.97 340.201 1408.83 330.488 1420.4 318.991C1421.17 318.471 1421.84 317.802 1422.41 317.034C1427.41 312.276 1433.53 307.247 1440.89 302.142C1457.05 291.76 1490.52 273.301 1538.99 272.136H1542.46C1554 272.136 1563.22 274.44 1572.46 276.745C1508.98 330.984 1461.68 357.521 1427.04 358.686ZM1967.92 344.835C1958.68 365.599 1940.22 385.223 1917.15 399.074C1895.22 412.925 1869.82 421.002 1847.89 421.002C1830.6 421.002 1817.89 416.393 1813.28 409.456C1807.51 401.378 1810.98 387.527 1815.58 378.285C1840.98 322.881 1913.68 290.571 1955.23 282.493C1956.37 282.493 1957.54 283.658 1958.68 284.798C1963.29 289.406 1966.75 296.344 1969.06 302.117C1974.83 317.108 1973.67 330.959 1967.92 344.81V344.835Z" fill="#039854" stroke="#1F4D2C" stroke-width="16" mask="url(#path-2-inside-1_50_10231)"/>
</svg>
